<?xml version="1.0" encoding="utf-8"?>
<svg version="1.1" id="Layer_1" xmlns="http://www.w3.org/2000/svg" xmlns:xlink="http://www.w3.org/1999/xlink" x="0px"
     y="0px" viewBox="0 0 110.63 122.88" style="enable-background:new 0 0 110.63 122.88" xml:space="preserve"><g><path d="M8.8,22.23l22.75,22.75l31.56-9.45c0.11-0.03,0.22-0.06,0.33-0.07c0.4-0.71,0.89-1.36,1.47-1.94 c1.6-1.6,3.8-2.58,6.23-2.58c2.43,0,4.64,0.99,6.23,2.58c1.6,1.6,2.58,3.8,2.58,6.23c0,2.43-0.99,4.64-2.58,6.23 c-0.65,0.65-1.4,1.2-2.22,1.62l-8.55,32.41l22.39,22.39c1.12,1.12,1.12,2.94,0,4.06c-0.39,0.39-0.86,0.64-1.35,0.76 c-14.5,4.49-28.16,3.91-40.19-0.11l3.61,12.89c0.08,0.22,0.12,0.47,0.12,0.72c0,1.19-0.97,2.16-2.16,2.16H13.64v0 c-0.17,0-0.34-0.02-0.51-0.06c-1.15-0.28-1.86-1.45-1.57-2.6l7.75-31.34c-0.75-0.8-1.49-1.61-2.2-2.44 C10.59,78.86,5.69,70.05,2.84,60.94c-4-12.81-3.95-26.25,1.32-37.85c0.65-1.44,2.35-2.09,3.79-1.44 C8.28,21.79,8.56,21.99,8.8,22.23L8.8,22.23L8.8,22.23z M42.44,105.21c-0.42-0.18-0.84-0.36-1.25-0.55 c-6.8-3.09-12.96-7.29-18.33-12.26l-6.47,26.17h29.79L42.44,105.21L42.44,105.21z M73.6,4.28c-1.18-0.17-1.99-1.26-1.83-2.43 c0.17-1.18,1.26-1.99,2.43-1.83c10.25,1.46,18.92,4.71,25.27,10.56c6.4,5.91,10.38,14.37,11.15,26.18 c0.07,1.19-0.83,2.21-2.01,2.28c-1.19,0.07-2.21-0.83-2.28-2.01c-0.69-10.61-4.17-18.13-9.77-23.29 C90.91,8.54,83.02,5.62,73.6,4.28L73.6,4.28z M74.18,15c-1.17-0.19-1.97-1.3-1.78-2.47c0.19-1.17,1.3-1.97,2.47-1.78 c6.99,1.16,12.89,3.57,17.24,7.75c4.39,4.23,7.12,10.16,7.7,18.33c0.08,1.19-0.81,2.21-2,2.3c-1.19,0.08-2.21-0.81-2.3-2 c-0.5-7.02-2.77-12.05-6.39-15.54C85.46,18.08,80.33,16.02,74.18,15L74.18,15z M74.03,26.54c-1.18-0.13-2.04-1.18-1.91-2.37 c0.13-1.18,1.18-2.04,2.37-1.91c4.14,0.45,7.58,1.79,10.17,4.24c2.59,2.45,4.23,5.94,4.73,10.66c0.13,1.18-0.73,2.24-1.91,2.37 c-1.18,0.13-2.24-0.73-2.37-1.91c-0.39-3.64-1.57-6.25-3.42-8C79.84,27.87,77.23,26.89,74.03,26.54L74.03,26.54z M62.33,40.25 l-27.32,8.18L47.08,60.5l16.54-16.13C62.88,43.16,62.42,41.76,62.33,40.25L62.33,40.25z M66.7,47.37L50.12,63.54L63.07,76.5 l7.38-27.95C69.09,48.44,67.81,48.03,66.7,47.37L66.7,47.37z M74.32,36.57c-0.81-0.81-1.94-1.32-3.19-1.32 c-1.24,0-2.37,0.5-3.19,1.32c-0.81,0.81-1.32,1.94-1.32,3.19c0,1.24,0.5,2.37,1.32,3.19c0.81,0.82,1.94,1.32,3.19,1.32 c1.24,0,2.37-0.5,3.19-1.32c0.81-0.81,1.32-1.94,1.32-3.19C75.64,38.51,75.13,37.38,74.32,36.57L74.32,36.57z"/></g></svg>
